{
  "accessors": [
    {
      "bufferView": 2,
      "componentType": 5126,
      "count": 37645,
      "max": [
        3.91109299659729,
        3.146014928817749,
        7.495701789855957
      ],
      "min": [
        -3.630981922149658,
        -3.361625909805298,
        0.0
      ],
      "type": "VEC3"
    },
    {
      "bufferView": 2,
      "byteOffset": 451740,
      "componentType": 5126,
      "count": 37645,
      "max": [
        0.9998773336410522,
        0.9999907612800598,
        0.9999958872795105
      ],
      "min": [
        -0.9999629855155945,
        -0.9999314546585083,
        -0.9998438954353333
      ],
      "type": "VEC3"
    },
    {
      "bufferView": 1,
      "componentType": 5126,
      "count": 37645,
      "max": [
        1.0,
        1.0
      ],
      "min": [
        0.0,
        0.0
      ],
      "type": "VEC2"
    },
    {
      "bufferView": 0,
      "componentType": 5125,
      "count": 115557,
      "type": "SCALAR"
    },
    {
      "bufferView": 2,
      "byteOffset": 903480,
      "componentType": 5126,
      "count": 1244,
      "max": [
        4.276926040649414,
        4.02510404586792,
        7.339245796203613
      ],
      "min": [
        -3.7995378971099854,
        -3.910080909729004,
        -1.0185760259628296
      ],
      "type": "VEC3"
    },
    {
      "bufferView": 2,
      "byteOffset": 918408,
      "componentType": 5126,
      "count": 1244,
      "max": [
        0.9831893444061279,
        0.9566400051116943,
        0.9628653526306152
      ],
      "min": [
        -0.9791086316108704,
        -0.975816547870636,
        0.07164203375577927
      ],
      "type": "VEC3"
    },
    {
      "bufferView": 1,
      "byteOffset": 301160,
      "componentType": 5126,
      "count": 1244,
      "max": [
        1.0,
        1.0
      ],
      "min": [
        0.0,
        0.0
      ],
      "type": "VEC2"
    },
    {
      "bufferView": 0,
      "byteOffset": 462228,
      "componentType": 5125,
      "count": 1866,
      "type": "SCALAR"
    },
    {
      "bufferView": 2,
      "byteOffset": 933336,
      "componentType": 5126,
      "count": 1164,
      "max": [
        4.487016201019287,
        3.965177059173584,
        7.541868209838867
      ],
      "min": [
        -4.631344795227051,
        -3.8431708812713623,
        -0.41632699966430664
      ],
      "type": "VEC3"
    },
    {
      "bufferView": 2,
      "byteOffset": 947304,
      "componentType": 5126,
      "count": 1164,
      "max": [
        0.9654169082641602,
        0.9691105484962463,
        0.9777326583862305
      ],
      "min": [
        -0.9744767546653748,
        -0.9655808806419373,
        0.03288499638438225
      ],
      "type": "VEC3"
    },
    {
      "bufferView": 1,
      "byteOffset": 311112,
      "componentType": 5126,
      "count": 1164,
      "max": [
        1.0,
        1.0
      ],
      "min": [
        0.0,
        0.0
      ],
      "type": "VEC2"
    },
    {
      "bufferView": 0,
      "byteOffset": 469692,
      "componentType": 5125,
      "count": 1746,
      "type": "SCALAR"
    },
    {
      "bufferView": 2,
      "byteOffset": 961272,
      "componentType": 5126,
      "count": 1344,
      "max": [
        4.221841812133789,
        2.9232571125030518,
        7.182373046875
      ],
      "min": [
        -4.131968021392822,
        -3.981894016265869,
        -0.618008017539978
      ],
      "type": "VEC3"
    },
    {
      "bufferView": 2,
      "byteOffset": 977400,
      "componentType": 5126,
      "count": 1344,
      "max": [
        0.980110228061676,
        0.9503227472305298,
        0.9795330166816711
      ],
      "min": [
        -0.9332711100578308,
        -0.9689223766326904,
        0.05610401928424835
      ],
      "type": "VEC3"
    },
    {
      "bufferView": 1,
      "byteOffset": 320424,
      "componentType": 5126,
      "count": 1344,
      "max": [
        1.0,
        1.0
      ],
      "min": [
        0.0,
        0.0
      ],
      "type": "VEC2"
    },
    {
      "bufferView": 0,
      "byteOffset": 476676,
      "componentType": 5125,
      "count": 2016,
      "type": "SCALAR"
    },
    {
      "bufferView": 2,
      "byteOffset": 993528,
      "componentType": 5126,
      "count": 1248,
      "max": [
        4.3572869300842285,
        3.6440670490264893,
        7.458086013793945
      ],
      "min": [
        -3.454658031463623,
        -4.117359161376953,
        -0.729764997959137
      ],
      "type": "VEC3"
    },
    {
      "bufferView": 2,
      "byteOffset": 1008504,
      "componentType": 5126,
      "count": 1248,
      "max": [
        0.9657582640647888,
        0.9809648990631104,
        0.9807291030883789
      ],
      "min": [
        -0.9901106357574463,
        -0.9976581335067749,
        0.0611560083925724
      ],
      "type": "VEC3"
    },
    {
      "bufferView": 1,
      "byteOffset": 331176,
      "componentType": 5126,
      "count": 1248,
      "max": [
        1.0,
        1.0
      ],
      "min": [
        0.0,
        0.0
      ],
      "type": "VEC2"
    },
    {
      "bufferView": 0,
      "byteOffset": 484740,
      "componentType": 5125,
      "count": 1872,
      "type": "SCALAR"
    },
    {
      "bufferView": 2,
      "byteOffset": 1023480,
      "componentType": 5126,
      "count": 1228,
      "max": [
        4.507552146911621,
        3.4410479068756104,
        7.280688762664795
      ],
      "min": [
        -3.3737199306488037,
        -4.12317419052124,
        -0.9202589988708496
      ],
      "type": "VEC3"
    },
    {
      "bufferView": 2,
      "byteOffset": 1038216,
      "componentType": 5126,
      "count": 1228,
      "max": [
        0.9531106352806091,
        0.967851459980011,
        0.9741456508636475
      ],
      "min": [
        -0.9570686221122742,
        -0.9482617378234863,
        0.03199901804327965
      ],
      "type": "VEC3"
    },
    {
      "bufferView": 1,
      "byteOffset": 341160,
      "componentType": 5126,
      "count": 1228,
      "max": [
        1.0,
        1.0
      ],
      "min": [
        0.0,
        0.0
      ],
      "type": "VEC2"
    },
    {
      "bufferView": 0,
      "byteOffset": 492228,
      "componentType": 5125,
      "count": 1842,
      "type": "SCALAR"
    },
    {
      "bufferView": 2,
      "byteOffset": 1052952,
      "componentType": 5126,
      "count": 1192,
      "max": [
        4.347874164581299,
        3.1341400146484375,
        7.558465003967285
      ],
      "min": [
        -4.3455328941345215,
        -3.8670730590820313,
        -0.38751399517059326
      ],
      "type": "VEC3"
    },
    {
      "bufferView": 2,
      "byteOffset": 1067256,
      "componentType": 5126,
      "count": 1192,
      "max": [
        0.9953296184539795,
        0.9843820929527283,
        0.9875836372375488
      ],
      "min": [
        -0.9786593317985535,
        -0.9569047689437866,
        0.020312007516622543
      ],
      "type": "VEC3"
    },
    {
      "bufferView": 1,
      "byteOffset": 350984,
      "componentType": 5126,
      "count": 1192,
      "max": [
        1.0,
        1.0
      ],
      "min": [
        0.0,
        0.0
      ],
      "type": "VEC2"
    },
    {
      "bufferView": 0,
      "byteOffset": 499596,
      "componentType": 5125,
      "count": 1788,
      "type": "SCALAR"
    },
    {
      "bufferView": 2,
      "byteOffset": 1081560,
      "componentType": 5126,
      "count": 1204,
      "max": [
        3.58358097076416,
        3.6496849060058594,
        7.362090110778809
      ],
      "min": [
        -4.699708938598633,
        -4.293121814727783,
        -0.16410300135612488
      ],
      "type": "VEC3"
    },
    {
      "bufferView": 2,
      "byteOffset": 1096008,
      "componentType": 5126,
      "count": 1204,
      "max": [
        0.9225296378135681,
        0.9628766179084778,
        0.9794177412986755
      ],
      "min": [
        -0.9764580130577087,
        -0.9943549036979675,
        0.017486998811364174
      ],
      "type": "VEC3"
    },
    {
      "bufferView": 1,
      "byteOffset": 360520,
      "componentType": 5126,
      "count": 1204,
      "max": [
        1.0,
        1.0
      ],
      "min": [
        0.0,
        0.0
      ],
      "type": "VEC2"
    },
    {
      "bufferView": 0,
      "byteOffset": 506748,
      "componentType": 5125,
      "count": 1806,
      "type": "SCALAR"
    }
  ],
  "asset": {
    "extras": {
      "author": "Sereib (https://sketchfab.com/Sereib)",
      "license": "CC-BY-4.0 (http://creativecommons.org/licenses/by/4.0/)",
      "source": "https://sketchfab.com/3d-models/conifer-tree-high-poly-1f013f11a5e6499f8285e770adf0e1c5",
      "title": "Conifer Tree (high-Poly)"
    },
    "generator": "Sketchfab-16.12.0",
    "version": "2.0"
  },
  "bufferViews": [
    {
      "buffer": 0,
      "byteLength": 513972,
      "name": "floatBufferViews",
      "target": 34963
    },
    {
      "buffer": 0,
      "byteLength": 370152,
      "byteOffset": 513972,
      "byteStride": 8,
      "name": "floatBufferViews",
      "target": 34962
    },
    {
      "buffer": 0,
      "byteLength": 1110456,
      "byteOffset": 884124,
      "byteStride": 12,
      "name": "floatBufferViews",
      "target": 34962
    }
  ],
  "buffers": [
    {
      "byteLength": 1994580,
      "uri": "scene.bin"
    }
  ],
  "images": [
    {
      "uri": "textures/nature_bark_fir_07_l_0001.jpg_baseColor.jpeg"
    },
    {
      "uri": "textures/nature_leaves_thuja_01_l_0001.jpg_baseColor.png"
    },
    {
      "uri": "textures/nature_leaves_thuja_01_l_0002.jpg_baseColor.png"
    },
    {
      "uri": "textures/nature_leaves_thuja_01_l_0003.jpg_baseColor.png"
    },
    {
      "uri": "textures/nature_leaves_thuja_01_l_0004.jpg_baseColor.png"
    },
    {
      "uri": "textures/nature_leaves_thuja_01_l_0005.jpg_baseColor.png"
    },
    {
      "uri": "textures/nature_leaves_thuja_01_l_0006.jpg_baseColor.png"
    },
    {
      "uri": "textures/nature_leaves_thuja_01_l_0007.jpg_baseColor.png"
    }
  ],
  "materials": [
    {
      "doubleSided": true,
      "name": "nature_bark_fir_07_l_0001.jpg",
      "pbrMetallicRoughness": {
        "baseColorTexture": {
          "index": 0
        },
        "metallicFactor": 0.0,
        "roughnessFactor": 0.9
      }
    },
    {
      "alphaMode": "BLEND",
      "doubleSided": true,
      "name": "nature_leaves_thuja_01_l_0001.jpg",
      "pbrMetallicRoughness": {
        "baseColorTexture": {
          "index": 1
        },
        "metallicFactor": 0.0,
        "roughnessFactor": 0.9
      }
    },
    {
      "alphaMode": "BLEND",
      "doubleSided": true,
      "name": "nature_leaves_thuja_01_l_0002.jpg",
      "pbrMetallicRoughness": {
        "baseColorTexture": {
          "index": 2
        },
        "metallicFactor": 0.0,
        "roughnessFactor": 0.9
      }
    },
    {
      "alphaMode": "BLEND",
      "doubleSided": true,
      "name": "nature_leaves_thuja_01_l_0003.jpg",
      "pbrMetallicRoughness": {
        "baseColorTexture": {
          "index": 3
        },
        "metallicFactor": 0.0,
        "roughnessFactor": 0.9
      }
    },
    {
      "alphaMode": "BLEND",
      "doubleSided": true,
      "name": "nature_leaves_thuja_01_l_0004.jpg",
      "pbrMetallicRoughness": {
        "baseColorTexture": {
          "index": 4
        },
        "metallicFactor": 0.0,
        "roughnessFactor": 0.9
      }
    },
    {
      "alphaMode": "BLEND",
      "doubleSided": true,
      "name": "nature_leaves_thuja_01_l_0005.jpg",
      "pbrMetallicRoughness": {
        "baseColorTexture": {
          "index": 5
        },
        "metallicFactor": 0.0,
        "roughnessFactor": 0.9
      }
    },
    {
      "alphaMode": "BLEND",
      "doubleSided": true,
      "name": "nature_leaves_thuja_01_l_0006.jpg",
      "pbrMetallicRoughness": {
        "baseColorTexture": {
          "index": 6
        },
        "metallicFactor": 0.0,
        "roughnessFactor": 0.9
      }
    },
    {
      "alphaMode": "BLEND",
      "doubleSided": true,
      "name": "nature_leaves_thuja_01_l_0007.jpg",
      "pbrMetallicRoughness": {
        "baseColorTexture": {
          "index": 7
        },
        "metallicFactor": 0.0,
        "roughnessFactor": 0.9
      }
    }
  ],
  "meshes": [
    {
      "name": "Object_0",
      "primitives": [
        {
          "attributes": {
            "NORMAL": 1,
            "POSITION": 0,
            "TEXCOORD_0": 2
          },
          "indices": 3,
          "material": 0,
          "mode": 4
        }
      ]
    },
    {
      "name": "Object_1",
      "primitives": [
        {
          "attributes": {
            "NORMAL": 5,
            "POSITION": 4,
            "TEXCOORD_0": 6
          },
          "indices": 7,
          "material": 1,
          "mode": 4
        }
      ]
    },
    {
      "name": "Object_2",
      "primitives": [
        {
          "attributes": {
            "NORMAL": 9,
            "POSITION": 8,
            "TEXCOORD_0": 10
          },
          "indices": 11,
          "material": 2,
          "mode": 4
        }
      ]
    },
    {
      "name": "Object_3",
      "primitives": [
        {
          "attributes": {
            "NORMAL": 13,
            "POSITION": 12,
            "TEXCOORD_0": 14
          },
          "indices": 15,
          "material": 3,
          "mode": 4
        }
      ]
    },
    {
      "name": "Object_4",
      "primitives": [
        {
          "attributes": {
            "NORMAL": 17,
            "POSITION": 16,
            "TEXCOORD_0": 18
          },
          "indices": 19,
          "material": 4,
          "mode": 4
        }
      ]
    },
    {
      "name": "Object_5",
      "primitives": [
        {
          "attributes": {
            "NORMAL": 21,
            "POSITION": 20,
            "TEXCOORD_0": 22
          },
          "indices": 23,
          "material": 5,
          "mode": 4
        }
      ]
    },
    {
      "name": "Object_6",
      "primitives": [
        {
          "attributes": {
            "NORMAL": 25,
            "POSITION": 24,
            "TEXCOORD_0": 26
          },
          "indices": 27,
          "material": 6,
          "mode": 4
        }
      ]
    },
    {
      "name": "Object_7",
      "primitives": [
        {
          "attributes": {
            "NORMAL": 29,
            "POSITION": 28,
            "TEXCOORD_0": 30
          },
          "indices": 31,
          "material": 7,
          "mode": 4
        }
      ]
    }
  ],
  "nodes": [
    {
      "children": [
        1
      ],
      "matrix": [
        1.0,
        0.0,
        0.0,
        0.0,
        0.0,
        2.220446049250313e-16,
        -1.0,
        0.0,
        0.0,
        1.0,
        2.220446049250313e-16,
        0.0,
        0.0,
        0.0,
        0.0,
        1.0
      ],
      "name": "Sketchfab_model"
    },
    {
      "children": [
        2,
        3,
        4,
        5,
        6,
        7,
        8,
        9
      ],
      "name": "trees.obj.cleaner.materialmerger.gles"
    },
    {
      "mesh": 0,
      "name": "Object_2"
    },
    {
      "mesh": 1,
      "name": "Object_3"
    },
    {
      "mesh": 2,
      "name": "Object_4"
    },
    {
      "mesh": 3,
      "name": "Object_5"
    },
    {
      "mesh": 4,
      "name": "Object_6"
    },
    {
      "mesh": 5,
      "name": "Object_7"
    },
    {
      "mesh": 6,
      "name": "Object_8"
    },
    {
      "mesh": 7,
      "name": "Object_9"
    }
  ],
  "samplers": [
    {
      "magFilter": 9729,
      "minFilter": 9987,
      "wrapS": 10497,
      "wrapT": 10497
    }
  ],
  "scene": 0,
  "scenes": [
    {
      "name": "Sketchfab_Scene",
      "nodes": [
        0
      ]
    }
  ],
  "textures": [
    {
      "sampler": 0,
      "source": 0
    },
    {
      "sampler": 0,
      "source": 1
    },
    {
      "sampler": 0,
      "source": 2
    },
    {
      "sampler": 0,
      "source": 3
    },
    {
      "sampler": 0,
      "source": 4
    },
    {
      "sampler": 0,
      "source": 5
    },
    {
      "sampler": 0,
      "source": 6
    },
    {
      "sampler": 0,
      "source": 7
    }
  ]
}
